<?xml version="1.0" encoding="UTF-8"?>
<svg id="Capa_2" xmlns="http://www.w3.org/2000/svg" version="1.1" viewBox="0 0 413.07 413.08">
  <!-- Generator: Adobe Illustrator 29.5.1, SVG Export Plug-In . SVG Version: 2.1.0 Build 141)  -->
  <defs>
    <style>
      .st0 {
        fill: #fff;
      }

      .st1 {
        fill: #1e1e1e;
      }

      .st2 {
        fill: #0db4e7;
      }

      .st3 {
        fill: #ffd02f;
      }

      .st4 {
        fill: #e72366;
      }
    </style>
  </defs>
  <path class="st0" d="M397,249.63c3.2,5.67,4.9,12.23,4.9,19.19,0,21.61-16.57,37.9-38.55,37.9-6.76,0-13.18-1.54-18.78-4.44l-91.59,91.59c-12.38,12.39-28.88,19.21-46.43,19.21s-34.05-6.82-46.44-19.21l-94.43-94.43c-5.59,4.66-13.4,7.28-22.51,7.28-18.12,0-31.15-10.68-31.68-25.97l-.35-10.34h5.3c-2.4-3.57-3.66-7.89-3.66-12.76,0-3.48.61-6.78,1.81-9.81C5.13,236.19,0,221.77,0,206.55,0,189.01,6.83,172.52,19.23,160.12l75.24-75.25L160.11,19.24C172.51,6.83,189.01,0,206.55,0s34.03,6.83,46.43,19.24l67.13,67.13h.01l73.75,73.75c24.51,24.51,25.55,63.74,3.13,89.51Z"/>
  <g>
    <path class="st4" d="M198.23,206.2H10.01c.08-14.74,5.86-28.58,16.29-39.01l66.7-66.7c.05.08.11.16.16.24.07.1.14.2.21.31.07.1.13.19.2.3.08.11.16.23.24.35.09.12.17.24.25.36.12.17.24.35.36.53.07.09.14.19.2.29.1.14.2.29.31.44.06.09.12.18.19.28.16.22.31.46.48.69.06.09.12.18.18.27.12.17.25.35.37.53.07.1.14.19.21.29.17.25.35.51.54.77.05.07.1.15.15.22.15.21.29.42.44.63.08.11.15.21.23.32.16.22.32.45.48.69.05.06.1.13.14.19.2.28.41.57.62.86.07.11.15.22.23.33.16.22.32.45.48.67.07.1.14.19.2.29.22.3.44.61.67.92.07.1.14.2.21.29.18.25.35.49.53.74.08.1.15.21.23.31.23.32.47.65.71.98.07.09.13.17.2.26.19.27.39.53.58.8.09.12.17.23.25.34.24.33.48.65.73.98.04.06.08.12.13.18.24.32.48.65.72.97.09.12.18.24.26.36.22.29.44.58.66.88.07.08.13.16.19.24.27.37.54.73.82,1.1.09.12.18.23.26.35.22.28.44.57.66.86.08.11.17.22.25.33.28.37.57.75.87,1.13.07.1.15.2.22.3.24.3.47.61.71.92.09.12.18.24.28.36.3.39.6.78.91,1.18.05.06.1.12.14.18.27.35.55.69.82,1.04.1.13.19.25.29.37.28.36.56.72.85,1.08.04.05.08.11.13.16.32.41.64.82.97,1.23.09.12.19.24.29.36.26.33.53.67.8,1,.08.1.15.19.23.28.33.42.67.83,1,1.25.09.11.18.21.26.32.28.34.55.67.83,1.01.09.12.18.23.27.34.35.42.7.85,1.05,1.28.06.07.12.14.18.21.3.37.61.73.91,1.1.1.12.2.24.3.35.36.44.72.87,1.09,1.31l.29.34.35.27c1.73,1.37,3.89,2.07,6.07,2.03.72,0,1.45-.11,2.16-.29.2-.05.4-.11.59-.17.15-.05.29-.11.44-.16.04-.02.08-.03.12-.05.17-.06.33-.14.49-.21.02,0,.04-.02.06-.03.18-.08.35-.17.52-.26.01,0,.01-.01.01-.01,1.56-.85,2.84-2.13,3.7-3.69.09-.17.18-.34.26-.5,0-.02.01-.03.02-.04.07-.15.14-.31.2-.47.01-.03.03-.05.04-.08.06-.15.11-.3.16-.46.01-.03.03-.07.04-.11.02-.06.04-.12.06-.17.02-.06.03-.12.05-.18.26-.9.58-1.79.94-2.65.03-.06.05-.12.08-.18.01-.02.02-.05.03-.07,1.19-2.73,2.89-5.24,5.02-7.36,6.38-6.38,15.69-8.61,24.28-5.81.29.1.57.2.86.3,8.78,3.23,14.77,11.22,16.48,22.06-.33,2.53-.91,4.92-1.71,7.14-.01.02-.02.05-.03.08-.33.91-.7,1.8-1.11,2.65-.02.05-.04.09-.06.13-.12.24-.24.48-.36.71-.03.06-.06.12-.09.18-.09.18-.19.36-.3.54-.05.11-.11.21-.17.32-.1.18-.21.36-.32.54-.06.1-.12.2-.18.29-.09.16-.19.31-.3.47-.07.11-.14.23-.22.35-.09.13-.18.26-.28.4-.09.12-.17.25-.27.38-.09.14-.2.27-.3.4-.09.12-.18.24-.27.36-.1.13-.2.25-.3.38-.1.12-.2.24-.3.36-.09.11-.19.22-.29.34-.11.12-.22.25-.33.37-.09.09-.18.19-.27.29-.12.13-.25.26-.37.39-.09.09-.18.17-.27.26-.13.13-.26.26-.4.39-.1.09-.2.18-.29.27-.14.12-.27.24-.4.36-.09.08-.18.15-.27.23-.15.12-.29.24-.44.36-.08.06-.15.12-.23.18-.17.13-.34.27-.51.39-.07.06-.15.11-.23.17-.17.12-.35.25-.52.37-.08.06-.17.11-.25.16-.18.12-.35.24-.53.35-.07.04-.15.09-.22.13-.19.12-.38.24-.58.35-.06.03-.12.06-.17.09-.22.12-.43.24-.65.35-.04.03-.08.04-.12.07-.24.12-.48.24-.72.35-.04.02-.09.04-.13.06-.24.11-.48.22-.72.32-.06.03-.13.05-.19.07-.23.1-.46.19-.69.28-.04.02-.09.03-.13.05-.25.09-.51.18-.77.27-.01,0-.02,0-.03,0-.29.09-.58.19-.88.27-.11.03-.22.07-.34.11-.37.12-.73.26-1.08.42-.02.01-.03.02-.05.02-.03.02-.07.04-.11.06-2.48,1.21-4.31,3.43-5.01,6.15-.09.35-.16.71-.21,1.07s-.08.72-.08,1.08c-.05,2.17.65,4.34,2.01,6.07l.28.35.34.29c.46.38.91.76,1.36,1.14.11.09.23.19.34.28.44.36.87.73,1.31,1.08.01.02.02.03.04.04.44.37.89.73,1.33,1.1.12.09.23.18.34.27.43.35.86.7,1.29,1.05.01.01.03.02.04.03.44.36.89.72,1.33,1.07.1.09.21.17.32.26.41.33.83.67,1.25,1,.02.02.04.03.06.05.44.35.87.69,1.3,1.03.11.08.21.17.31.25.42.32.83.65,1.23.96.02.02.04.03.06.05.43.34.86.67,1.29,1,.09.08.18.15.28.22.4.31.8.62,1.2.93.02.02.04.03.07.05.42.33.84.65,1.25.96.09.07.18.14.27.21.39.3.78.59,1.17.89.02,0,.04.03.06.05.42.31.83.62,1.24.93.07.05.14.11.22.17.39.29.78.58,1.16.87.02.01.03.02.04.03.4.3.8.6,1.2.89.07.05.14.11.21.16.38.28.75.56,1.13.83.01,0,.02.02.02.02.4.29.79.58,1.17.86.06.04.11.08.16.12.38.27.75.55,1.12.81h0c.38.28.76.56,1.13.82.04.04.09.07.13.1.74.53,1.45,1.05,2.15,1.54.03.03.07.05.1.08.71.5,1.39.98,2.05,1.45.02.01.03.02.05.04.67.47,1.32.92,1.94,1.35.01,0,.02.02.03.03.62.43,1.22.85,1.79,1.24h.01c.5.36.99.69,1.45,1Z"/>
    <path class="st1" d="M231.93,318.92c1.44,1.11,2.82,2.31,4.12,3.61,3.91,3.91,6.98,8.46,9.12,13.54,2.22,5.26,3.35,10.84,3.35,16.58s-1.13,11.32-3.35,16.58c-2.15,5.07-5.22,9.63-9.12,13.54-3.91,3.91-8.46,6.98-13.54,9.12-5.26,2.22-10.84,3.35-16.58,3.35s-11.32-1.13-16.58-3.35c-5.07-2.15-9.63-5.22-13.54-9.12-3.91-3.91-6.98-8.46-9.12-13.54-2.22-5.26-3.35-10.84-3.35-16.58s1.13-11.32,3.35-16.58c2.15-5.07,5.22-9.63,9.12-13.54,1.3-1.3,2.68-2.5,4.12-3.61h-77.69c-.62.42-1.21.82-1.75,1.19l66.69,66.69c21.71,21.71,57.02,21.71,78.73,0l67.88-67.87h-81.86Z"/>
    <path class="st3" d="M403.06,206.21h-189.2c-.2-.14-.4-.26-.59-.4-.06-.04-.11-.07-.17-.11-.15-.1-.3-.21-.45-.31-.03-.02-.07-.04-.1-.06.01-.01.02-.02.02-.03l.39-.57s.02-.04.03-.06c.14-.2.29-.41.44-.63.02-.03.04-.06.06-.09.13-.2.27-.4.41-.61.02-.03.04-.06.06-.09.16-.23.32-.47.48-.71.03-.03.06-.07.09-.11.14-.21.29-.43.44-.65.03-.04.06-.09.1-.14.17-.25.35-.5.53-.76.03-.05.06-.09.09-.14.16-.23.32-.46.48-.69.04-.06.08-.12.12-.18.19-.27.38-.54.58-.82.04-.05.08-.11.11-.16.17-.24.35-.49.52-.74.05-.06.09-.13.14-.19.21-.3.42-.59.63-.89.04-.06.08-.12.12-.17.18-.26.37-.52.56-.79.05-.07.1-.15.16-.22.22-.31.44-.63.67-.94.04-.06.09-.12.13-.18.2-.28.4-.56.61-.84.05-.08.11-.16.16-.23.24-.33.48-.67.73-1.01.04-.06.09-.12.13-.18.21-.29.43-.58.64-.87.07-.09.13-.18.2-.27.25-.35.51-.7.77-1.05.04-.06.08-.11.12-.17.23-.31.46-.63.7-.94.06-.09.13-.18.2-.27.27-.36.54-.73.82-1.1.04-.05.08-.11.11-.16.25-.32.5-.66.75-.99.07-.1.14-.19.22-.29.28-.38.57-.76.85-1.14.05-.05.09-.11.13-.16.26-.34.52-.69.78-1.03.08-.1.15-.2.23-.29.29-.4.6-.79.9-1.18.04-.06.08-.11.12-.16.27-.35.54-.71.82-1.06.08-.11.16-.21.25-.32.31-.4.62-.81.94-1.21.03-.04.06-.08.09-.12.29-.37.59-.75.89-1.13.08-.1.16-.21.25-.32.32-.41.65-.82.98-1.24.03-.04.06-.07.09-.11.31-.39.61-.78.93-1.16.08-.11.17-.22.26-.33.33-.42.67-.84,1.02-1.27.02-.03.04-.05.06-.08.33-.4.66-.81.99-1.21.09-.11.18-.22.27-.33.35-.43.7-.86,1.05-1.29.02-.02.03-.03.04-.05.35-.42.7-.84,1.05-1.26.09-.11.18-.22.27-.33.36-.44.73-.87,1.1-1.31.12-.05.26-.06.39-.04.03,0,.06.01.09.01.21.06.38.18.49.36.03.06.06.12.09.19v.04c.96,3.29,2.43,6.41,4.35,9.24,1.15,1.7,2.47,3.3,3.93,4.76.38.38.77.75,1.17,1.11.4.37.81.72,1.22,1.06,5.8,4.76,13,7.35,20.59,7.35h.02c3.46,0,6.84-.54,10.04-1.57,4.07-1.32,7.85-3.44,11.15-6.29.61-.53,1.21-1.08,1.78-1.65,6.14-6.14,9.52-14.31,9.52-22.99s-3.38-16.85-9.52-22.99c-3.9-3.9-8.75-6.76-14.01-8.27h-.04c-.26-.1-.46-.32-.53-.59-.05-.16-.04-.33.02-.49.46-.38.91-.76,1.37-1.14.1-.08.2-.17.31-.26.44-.37.89-.74,1.33-1.1.05-.04.1-.08.15-.12.41-.34.82-.67,1.22-1,.1-.08.2-.16.3-.24.44-.36.88-.72,1.31-1.07.07-.05.14-.11.22-.17.39-.31.77-.63,1.16-.94.09-.07.18-.14.26-.21.43-.34.86-.68,1.29-1.02.09-.07.17-.14.25-.2.39-.31.77-.61,1.15-.91.07-.05.14-.11.21-.16.42-.33.85-.66,1.27-.99.09-.07.18-.14.27-.21.39-.31.78-.61,1.17-.91.04-.03.08-.06.12-.09.41-.33.83-.65,1.24-.96.09-.07.18-.14.27-.21.84-.64,1.66-1.26,2.47-1.88.08-.06.16-.12.25-.19.4-.3.8-.6,1.2-.9.02-.01.04-.03.06-.04.38-.29.76-.57,1.13-.85.08-.05.15-.11.22-.17.39-.28.78-.57,1.16-.85.04-.03.08-.06.12-.09.35-.26.71-.52,1.06-.78.05-.04.11-.08.17-.13.37-.27.75-.54,1.11-.81.05-.03.09-.07.14-.1.35-.25.69-.5,1.03-.75.04-.02.07-.05.1-.07.37-.27.72-.52,1.08-.78.04-.03.09-.07.14-.1.35-.25.69-.5,1.03-.74h.01c.35-.26.7-.5,1.04-.75.03-.02.07-.05.11-.08.68-.48,1.33-.94,1.96-1.38.03-.02.06-.04.09-.06.64-.46,1.26-.89,1.85-1.3.01,0,.02-.01.03-.02,2.12-1.47,3.9-2.68,5.24-3.58l67.95,67.95c10.76,10.76,16.18,24.87,16.26,39.02Z"/>
    <path class="st2" d="M205.69,200c.04-.06.08-.11.11-.17.13-.2.27-.4.41-.6.03-.05.07-.1.1-.14.12-.18.25-.37.38-.56.04-.05.07-.1.11-.16.16-.23.32-.47.48-.71.03-.04.06-.08.09-.12.15-.22.3-.44.46-.66.03-.05.07-.1.1-.15.18-.26.37-.53.56-.8.02-.03.05-.07.07-.1.17-.25.35-.5.52-.75.04-.06.08-.11.12-.17.2-.29.4-.58.61-.87.03-.04.06-.08.08-.12.19-.27.38-.54.57-.81.04-.06.08-.12.13-.18.22-.31.44-.63.67-.95.03-.04.05-.07.08-.11.21-.29.42-.59.63-.89.05-.07.09-.13.14-.2.24-.33.48-.67.73-1.02.02-.03.04-.05.06-.08.23-.32.46-.64.7-.97.05-.07.1-.14.15-.21.26-.35.51-.71.78-1.07.02-.03.05-.07.07-.1.24-.33.48-.66.73-1,.06-.08.12-.16.18-.24.27-.37.54-.74.82-1.11.03-.04.05-.07.08-.11.26-.35.52-.7.78-1.05.06-.08.12-.16.18-.24.29-.39.58-.78.87-1.17.02-.03.05-.07.07-.1.27-.36.54-.73.82-1.09.07-.09.13-.18.2-.27.3-.4.61-.8.91-1.21.02-.03.05-.06.07-.09.29-.38.58-.76.87-1.14.07-.09.14-.19.21-.28.32-.41.63-.83.96-1.25.02-.03.04-.06.07-.09.3-.39.61-.79.91-1.18.08-.1.15-.19.23-.29.33-.42.66-.85,1-1.28.02-.02.04-.05.05-.07.32-.4.64-.81.96-1.22.08-.1.16-.21.25-.31.34-.43.68-.86,1.03-1.3.02-.02.03-.04.05-.06.33-.42.67-.83,1-1.25.08-.11.17-.21.26-.32.35-.44.71-.88,1.07-1.32.01-.02.03-.03.04-.05.35-.43.69-.86,1.05-1.28.09-.11.18-.22.27-.33.37-.45.73-.89,1.1-1.34,0-.01.02-.02.03-.03.36-.44.73-.88,1.09-1.32.09-.11.19-.22.28-.33.38-.45.76-.9,1.14-1.36l.12-.14.32-.32.21-.16c2.31-1.81,5.38-2.45,8.22-1.72,2.55.66,4.67,2.31,5.92,4.56,0,0,0,.01.01.02.07.13.14.27.21.41.02.04.04.08.06.13.05.11.1.22.14.33.03.08.07.15.1.23.03.08.06.17.09.25.04.11.08.21.12.32,0,0,0,0,0,0,0,0,0,0,0,0,0,.02.01.04.02.06.03.09.06.19.09.28,1.11,3.85,3.21,7.4,6.06,10.26,4.5,4.5,10.49,6.99,16.86,6.99h0c5.57,0,10.85-1.9,15.09-5.38.61-.5,1.19-1.03,1.75-1.59,4.5-4.5,6.98-10.49,6.98-16.86,0-6.37-2.48-12.36-6.98-16.86-2.86-2.86-6.41-4.96-10.26-6.07-.11-.03-.22-.07-.34-.1,0,0,0,0,0,0,0,0,0,0,0,0-.13-.04-.25-.09-.38-.14-.06-.02-.12-.04-.19-.07-.11-.05-.23-.1-.34-.15-.07-.03-.15-.06-.22-.09-.1-.05-.19-.1-.28-.14-.08-.04-.17-.08-.25-.13-.08-.04-.15-.09-.22-.13-.1-.06-.19-.11-.29-.17-.06-.04-.11-.08-.17-.12-.11-.07-.22-.14-.32-.22-.04-.03-.08-.06-.11-.09-.12-.09-.24-.18-.35-.27-.03-.03-.06-.06-.09-.08-.12-.1-.24-.2-.35-.31-.02-.02-.04-.04-.06-.06-.12-.12-.24-.24-.36-.36,0,0,0,0-.01-.01-.13-.14-.25-.28-.38-.43,0,0,0,0,0,0-.87-1.06-1.52-2.31-1.88-3.69-.73-2.85-.09-5.93,1.73-8.24l.16-.2.31-.31.14-.12c.43-.37.87-.73,1.3-1.09.11-.09.21-.18.32-.27.43-.36.85-.71,1.28-1.06.04-.04.08-.07.13-.1.39-.32.79-.65,1.18-.97.1-.08.21-.17.31-.25.42-.34.84-.68,1.25-1.02.07-.06.14-.11.2-.16.37-.3.73-.59,1.1-.88.1-.08.2-.16.3-.24.41-.33.82-.66,1.22-.98.08-.07.17-.13.25-.2.35-.28.71-.56,1.06-.84.09-.07.18-.14.26-.21.4-.32.8-.63,1.2-.95.09-.07.18-.14.28-.22.35-.27.7-.54,1.04-.81.07-.06.15-.11.22-.17.4-.31.79-.61,1.18-.92.1-.07.19-.15.28-.22.36-.28.71-.55,1.06-.82.05-.04.1-.07.14-.11.39-.3.78-.6,1.16-.89.09-.07.18-.14.28-.21.37-.28.74-.56,1.11-.84.02-.01.04-.03.05-.04.38-.29.76-.57,1.14-.86.09-.07.18-.13.27-.2.38-.28.75-.56,1.12-.84.01,0,.02-.02.03-.02.36-.27.72-.54,1.08-.8.08-.06.16-.12.24-.18.36-.27.72-.53,1.07-.79.04-.03.08-.06.12-.09.33-.24.65-.48.97-.71.07-.05.14-.1.21-.15.35-.26.7-.51,1.04-.76.04-.03.08-.06.12-.09.32-.23.63-.46.94-.68.05-.04.11-.08.16-.12.33-.24.66-.48.99-.71.05-.04.1-.07.15-.11.3-.22.6-.43.9-.64.03-.02.07-.05.1-.07.32-.23.64-.46.96-.68.04-.03.08-.06.12-.09.3-.21.6-.42.89-.63.02-.01.04-.03.05-.04.31-.22.6-.43.9-.63.04-.03.08-.06.12-.09.59-.41,1.15-.81,1.7-1.19.04-.03.08-.06.12-.08.54-.38,1.06-.74,1.56-1.08.03-.02.06-.04.09-.06.5-.35.98-.67,1.44-.98.02-.01.04-.03.06-.04.23-.16.45-.31.67-.45L245.91,26.31c-10.51-10.51-24.49-16.31-39.36-16.31s-28.85,5.79-39.36,16.31l-67.94,67.94s0,0,0,0c.25.38.53.79.83,1.24,0,0,.01.02.02.03.15.22.3.45.46.68,0,.01.02.03.03.04.15.22.31.46.47.69.01.02.02.03.03.05.17.24.34.5.52.75.02.03.04.06.06.09.17.25.35.51.53.77,0,.01.02.02.02.03.18.27.37.54.57.82.03.05.06.09.1.14.39.56.8,1.14,1.22,1.75.04.06.08.11.12.17.43.61.87,1.23,1.33,1.88.04.06.09.13.13.19.23.32.46.65.7.98.02.03.04.06.06.09.22.31.45.63.68.95.04.06.09.12.13.18.25.34.5.69.75,1.04.04.05.08.1.11.16.23.32.46.64.7.96.05.06.09.13.14.19.26.36.52.72.79,1.08.05.07.1.14.15.21.25.33.49.67.74,1.01.04.05.08.1.12.16.28.38.56.76.84,1.14.06.08.12.16.17.23.27.37.55.74.83,1.11.02.03.04.05.06.08.29.39.59.79.89,1.19.07.09.13.18.2.27.3.4.61.81.92,1.22,0,0,.01.02.02.03.3.4.61.8.92,1.2.07.09.14.19.22.28.32.41.63.82.95,1.24.03.05.07.09.11.14.29.38.59.76.89,1.15.08.1.15.19.23.29.32.42.65.83.98,1.25.06.07.12.15.18.22.29.37.59.75.89,1.13.07.09.14.17.21.26.34.42.68.85,1.02,1.28.07.09.15.19.23.28.3.38.61.76.91,1.14.06.08.13.16.19.24.35.43.7.87,1.05,1.3.08.1.17.21.25.31.32.4.65.8.98,1.19.05.06.09.11.14.17.36.44.72.88,1.09,1.32.09.11.19.23.28.34.36.44.73.88,1.1,1.32,0,0,.02.02.02.03.12.04.24.06.36.05.04,0,.08-.01.13-.02.27-.07.49-.27.58-.54v-.04c1.53-5.27,4.39-10.11,8.29-14.01,4.79-4.79,10.79-7.86,17.16-9.02,5.21-.95,10.67-.62,15.93,1.1,5.82,1.9,11,5.43,14.96,10.2,4.31,5.19,7.09,11.63,8.26,19.12h0c.12.77.13,1.55.03,2.32-.06.48-.13.95-.21,1.42-2.34,14.57-11.3,25.39-24.18,29.09h-.02s-.02.01-.02.01c-.27.09-.47.3-.54.57-.04.16-.03.33.02.49.46.39.92.77,1.37,1.15.07.06.14.12.21.17.91.76,1.82,1.5,2.72,2.24.07.06.14.12.22.18.9.73,1.79,1.45,2.68,2.16.07.06.14.11.21.17.88.71,1.76,1.4,2.63,2.08.07.06.14.11.21.17.86.68,1.72,1.35,2.56,2,.07.06.15.12.22.17.41.32.82.63,1.23.95,0,0,0,0,.01.01.42.32.84.64,1.25.96.07.05.14.1.2.16.39.3.78.6,1.17.89.01.01.03.02.04.03.4.31.8.61,1.2.9.07.05.14.11.22.16.37.28.73.55,1.1.82.02.02.05.03.07.05.39.29.77.58,1.15.86.07.05.13.1.2.15.35.26.69.51,1.04.77.03.02.06.05.1.07.37.27.74.54,1.1.81.06.05.12.09.19.14.33.24.65.48.98.71.04.03.07.05.11.08.35.26.7.51,1.04.75.06.04.12.09.18.13.31.22.61.44.92.66.04.03.08.06.11.08.33.24.66.47.98.7.06.04.11.08.17.12.3.21.59.42.87.62.03.02.06.04.09.07.31.22.62.44.93.66.05.04.1.07.15.11.27.19.54.38.8.57.03.02.07.05.1.07.29.2.58.4.86.6.04.03.08.06.13.09.25.18.5.35.75.52.03.02.07.05.1.07.27.18.53.36.78.54.04.03.08.05.12.08.23.16.46.32.69.47.03.02.05.03.08.05.25.17.49.33.72.49.03.02.05.04.08.05.22.15.43.29.64.44.02.01.04.03.06.04.23.15.45.3.66.45,0,0,.01,0,.02.01.21.14.42.28.61.41,0,0,0,0,.01,0,.02-.04.05-.08.08-.11.1-.14.19-.29.29-.44h0Z"/>
  </g>
  <g>
    <path class="st1" d="M21.49,280.41h7.3c.32,5.69,5.47,9.77,14.38,9.77s14.38-4.29,14.38-9.98c0-6.44-6.76-7.19-14.38-8.16-9.55-1.18-20.39-2.68-20.39-14.38,0-9.98,7.84-16.74,20.29-16.74s20.07,6.87,20.29,15.89h-7.08c-.32-5.26-5.15-9.34-13.31-9.34s-12.99,4.08-12.99,9.55c0,6.55,6.87,7.3,14.38,8.27,8.26,1.07,20.5,2.36,20.5,14.38,0,10.09-8.48,17.07-21.68,17.07s-21.36-6.98-21.68-16.32Z"/>
    <path class="st1" d="M73.55,270v-27.69h7.19v27.69c0,12.99,7.51,20.07,19,20.07s19-7.08,19-20.07v-27.69h7.19v27.69c0,17.6-10.52,26.73-26.19,26.73s-26.19-9.12-26.19-26.73h0Z"/>
    <path class="st1" d="M136.44,268.49v-49.38h7.19v34.56c3.97-8.05,12.24-12.77,22.33-12.77,15.56,0,27.48,11.38,27.48,27.69s-11.81,28.12-28.66,28.12-28.34-11.16-28.34-28.23h0ZM186.14,268.82c0-12.24-8.59-21.25-21.25-21.25s-21.25,9.02-21.25,21.25,8.48,21.25,21.25,21.25,21.25-9.02,21.25-21.25Z"/>
    <path class="st1" d="M203.85,219.12h7.19v76.21h-7.19s0-76.21,0-76.21h0Z"/>
    <path class="st1" d="M223.71,226.52c0-3.11,2.36-5.47,5.47-5.47s5.47,2.36,5.47,5.47-2.36,5.47-5.47,5.47-5.47-2.36-5.47-5.47ZM225.64,242.3h7.19v53.03h-7.19s0-53.03,0-53.03Z"/>
    <path class="st1" d="M245.28,264.31c0-15.78,9.23-23.4,21.47-23.4,8.59,0,15.67,4.08,19.11,11.91,3.33-7.84,10.41-11.91,19.11-11.91,12.24,0,21.47,7.62,21.47,23.4v31.02h-7.19v-31.02c0-11.27-6.23-16.74-14.81-16.74s-14.92,5.69-14.92,16.74v31.02h-7.19v-31.02c0-11.06-6.44-16.74-15.03-16.74s-14.81,5.47-14.81,16.74v31.02h-7.19s0-31.02,0-31.02Z"/>
    <path class="st1" d="M334.8,268.82c0-16.1,11.81-27.91,28.55-27.91s28.55,11.81,28.55,27.91-11.81,27.91-28.55,27.91-28.55-11.81-28.55-27.91ZM384.6,268.82c0-12.24-8.59-21.25-21.25-21.25s-21.25,9.02-21.25,21.25,8.59,21.25,21.25,21.25,21.25-9.02,21.25-21.25ZM369.36,218.04h7.73l-12.34,16.1h-6.44l11.06-16.1h0Z"/>
  </g>
  <g>
    <path class="st1" d="M205.92,315.31c-20.59,0-37.34,16.75-37.34,37.34s16.75,37.34,37.34,37.34,37.34-16.75,37.34-37.34-16.75-37.34-37.34-37.34ZM205.92,384.48c-17.58,0-31.83-14.25-31.83-31.83s14.25-31.83,31.83-31.83,31.83,14.25,31.83,31.83-14.25,31.83-31.83,31.83Z"/>
    <path class="st1" d="M197.32,357.7l27.09-9.57c.07-.1-.57-2.24-.66-2.39-.06-.11-.1-.19-.24-.18l-14.95,5.05-.79-2.61,1.4-1.83,8.03-16.04-1.92-1.02-8.18,16.82-11.25,5.85-4.17-3.1h-5v16.18l.16.14c.74-.05,1.98-.21,2.69-.08.12.02.2.05.27.16v1.61l.16.16h3.55l.16-.16v-1.77l24.73.16v1.77h3.71l.16-.16v-1.77h2.9v-2.8h-27.84v-4.41ZM195.71,361.95l-.16.16h-7.1l-.16-.16v-11.77h3.17l4.25,3.49v8.28ZM197.43,353.34l8.17-4.35.86,2.58-9.14,3.12c.05-.36-.13-1.08.11-1.34Z"/>
    <path class="st1" d="M214.54,357.95c-.71-1.38-2.32-1.95-.45-3.64l-.59-.59c-1.03.83-1.37,2.1-.72,3.3.37.68,1.17,1.1,1.29,1.94.09.63-.23,1.23-.74,1.6l.22.68c1.35-.55,1.63-2.06.99-3.3Z"/>
    <path class="st1" d="M218.85,360.65l.3.59c1.3-.69,1.62-1.87,1.01-3.21-.48-1.06-1.75-1.41-1.2-2.84.13-.35.43-.58.61-.9l-.47-.57c-.93.78-1.36,1.76-.9,2.94.44,1.13,2.01,1.82,1.3,3.26-.15.3-.46.46-.64.73Z"/>
    <path class="st1" d="M216.35,361.25c1.34-.59,1.61-2.03.98-3.3-.5-1-1.77-1.46-1.15-2.83.16-.35.47-.46.6-.81l-.49-.59c-1.02.83-1.34,2.01-.76,3.23.48,1,1.82,1.5,1.19,2.9-.26.58-.91.58-.37,1.4Z"/>
  </g>
</svg>