{"scene":0,"asset":{"generator":"ImageToStl.com","version":"2.0"},"scenes":[{"name":"Scene","nodes":[0]}],"nodes":[{"name":"Node0","children":[1]},{"name":"Node1","mesh":0}],"materials":[{"name":"mat0","pbrMetallicRoughness":{"baseColorFactor":[0.8,0.8,0.8,1.0],"metallicFactor":0.5,"roughnessFactor":0.5},"emissiveFactor":[0.0,0.0,0.0],"doubleSided":true},{"name":"mat1","pbrMetallicRoughness":{"baseColorFactor":[0.85,0.85,0.85,1.0],"metallicFactor":0.0,"roughnessFactor":0.75},"emissiveFactor":[0.0,0.0,0.0],"doubleSided":true}],"meshes":[{"name":"Mesh0","primitives":[{"indices":3,"material":0,"attributes":{"POSITION":0,"NORMAL":1,"TEXCOORD_0":2}}]}],"accessors":[{"bufferView":0,"componentType":5126,"count":10490,"type":"VEC3","min":[-0.2758546,-0.35195234,-0.12488541],"max":[0.2743116,0.2610354,0.14406145]},{"bufferView":1,"componentType":5126,"count":10490,"type":"VEC3"},{"bufferView":2,"componentType":5126,"count":10490,"type":"VEC2"},{"bufferView":3,"componentType":5123,"count":175653,"type":"SCALAR"}],"bufferViews":[{"target":34962,"buffer":0,"byteLength":125880,"byteOffset":0},{"target":34962,"buffer":0,"byteLength":125880,"byteOffset":125880},{"target":34962,"buffer":0,"byteLength":83920,"byteOffset":251760},{"target":34963,"buffer":0,"byteLength":351306,"byteOffset":335680}],"buffers":[{"byteLength":686988,"uri":"data:application/octet-stream;base64,"}]}