{
	"asset":{
		"generator":"Khronos glTF Blender I/O v4.5.47",
		"version":"2.0"
	},
	"scene":0,
	"scenes":[
		{
			"name":"Scene",
			"nodes":[
				0
			]
		}
	],
	"nodes":[
		{
			"mesh":0,
			"name":"tshirt"
		}
	],
	"materials":[
		{
			"doubleSided":true,
			"name":"Material.001",
			"pbrMetallicRoughness":{
				"metallicFactor":0,
				"roughnessFactor":0.5
			}
		}
	],
	"meshes":[
		{
			"name":"Mesh0.001",
			"primitives":[
				{
					"attributes":{
						"POSITION":0,
						"NORMAL":1,
						"TEXCOORD_0":2
					},
					"indices":3,
					"material":0
				}
			]
		}
	],
	"accessors":[
		{
			"bufferView":0,
			"componentType":5126,
			"count":10505,
			"max":[
				0.2743116021156311,
				0.26103541254997253,
				0.14406144618988037
			],
			"min":[
				-0.27585458755493164,
				-0.35195234417915344,
				-0.12488541007041931
			],
			"type":"VEC3"
		},
		{
			"bufferView":1,
			"componentType":5126,
			"count":10505,
			"type":"VEC3"
		},
		{
			"bufferView":2,
			"componentType":5126,
			"count":10505,
			"type":"VEC2"
		},
		{
			"bufferView":3,
			"componentType":5123,
			"count":58551,
			"type":"SCALAR"
		}
	],
	"bufferViews":[
		{
			"buffer":0,
			"byteLength":126060,
			"byteOffset":0,
			"target":34962
		},
		{
			"buffer":0,
			"byteLength":126060,
			"byteOffset":126060,
			"target":34962
		},
		{
			"buffer":0,
			"byteLength":84040,
			"byteOffset":252120,
			"target":34962
		},
		{
			"buffer":0,
			"byteLength":117102,
			"byteOffset":336160,
			"target":34963
		}
	],
	"buffers":[
		{
			"byteLength":453264,
			"uri":"tshirt.bin"
		}
	]
}
